<svg width="22" height="28" viewBox="0 0 22 28" fill="none" xmlns="http://www.w3.org/2000/svg">
<path fill-rule="evenodd" clip-rule="evenodd" d="M0.868724 20.06H15.165C19.1556 20.06 21.8411 17.5054 21.8411 13.6775C21.8411 9.84951 19.1556 7.51308 15.165 7.51308H7.14813C6.13264 7.51308 5.58919 7.03707 5.58919 6.16437C5.58919 5.29168 6.13264 4.81567 7.14813 4.81567H20.8256V0H6.67609C2.68551 0 0 2.55461 0 6.38255C0 10.2105 2.68551 12.4755 6.67609 12.4755H14.6969C15.7124 12.4755 16.2559 12.9872 16.2559 13.8639C16.2559 14.7405 15.7124 15.2523 14.6969 15.2523H0.868724V20.0679V20.06Z" fill="white"/>
<path d="M1.58671 22.0679H5.39482V25.876C5.39482 26.7526 4.68476 27.4627 3.80811 27.4627H0V23.6546C0 22.7779 0.710054 22.0679 1.58671 22.0679Z" fill="white"/>
</svg>
